<?xml version="1.0" encoding="UTF-8"?> <svg xmlns="http://www.w3.org/2000/svg" width="70" height="30" viewBox="0 0 70 30" fill="none"> <path d="M54.8156 29.9996C61.6935 29.9996 67.2691 24.3971 67.2691 17.4861C67.2691 10.5751 61.6935 4.97266 54.8156 4.97266C47.9377 4.97266 42.3621 10.5751 42.3621 17.4861C42.3621 24.3971 47.9377 29.9996 54.8156 29.9996Z" fill="#EFCA32"></path> <path d="M46.1946 4.9196C47.5466 4.9196 48.6426 3.81831 48.6426 2.4598C48.6426 1.10129 47.5466 0 46.1946 0C44.8426 0 43.7466 1.10129 43.7466 2.4598C43.7466 3.81831 44.8426 4.9196 46.1946 4.9196Z" fill="#F7EBB5"></path> <path d="M0 22.3517V8.02041H4.89882C6.19399 7.93643 7.48161 8.274 8.57084 8.98309C9.00173 9.32339 9.34334 9.76433 9.56593 10.2676C9.78853 10.7708 9.88537 11.321 9.84804 11.8704C9.86064 12.5005 9.67446 13.1183 9.31617 13.6355C8.92411 14.1822 8.38799 14.6081 7.76814 14.8654C8.49208 15.0272 9.13423 15.4447 9.5779 16.0418C10.0099 16.6493 10.2341 17.3811 10.2168 18.1275C10.254 18.7082 10.1582 19.2898 9.93677 19.8275C9.71537 20.3652 9.37426 20.8448 8.93965 21.2294C7.88618 22.0221 6.58096 22.4012 5.26903 22.2954H0V22.3517ZM2.5012 14.063H4.95061C5.59891 14.1162 6.2438 13.9258 6.76038 13.5286C6.97262 13.3433 7.14022 13.1121 7.25054 12.8523C7.36086 12.5924 7.41101 12.3108 7.39722 12.0287C7.417 11.7436 7.37493 11.4576 7.27391 11.1905C7.1729 10.9234 7.01535 10.6815 6.81217 10.4816C6.26057 10.1201 5.60591 9.95112 4.94921 10.0006H2.4998L2.5012 14.063ZM2.5012 15.8815V20.3194H5.26904C5.92417 20.3564 6.56946 20.1465 7.0788 19.7308C7.29686 19.5277 7.4673 19.2784 7.5778 19.001C7.6883 18.7236 7.7361 18.4251 7.71775 18.1268C7.71775 16.6297 6.97242 15.8808 5.42929 15.8274H2.5012V15.8815Z" fill="#000100"></path> <path d="M18.8394 22.3532C18.692 22.0329 18.602 21.6889 18.5735 21.3371C18.2213 21.7187 17.7925 22.0208 17.3155 22.2236C16.8385 22.4264 16.3241 22.5252 15.8063 22.5136C14.8556 22.5418 13.9277 22.2182 13.1988 21.6043C12.8743 21.3294 12.6151 20.9852 12.44 20.5967C12.2649 20.2082 12.1784 19.7854 12.1868 19.359C12.1616 18.8493 12.2655 18.3416 12.4889 17.8833C12.7123 17.425 13.0478 17.0313 13.464 16.7389C14.551 16.0725 15.8145 15.7553 17.0856 15.8296H18.5224V15.1342C18.5445 14.6428 18.3724 14.1625 18.0437 13.7981C17.8562 13.63 17.6373 13.501 17.3998 13.4184C17.1624 13.3359 16.9109 13.3014 16.6601 13.3171C16.1813 13.3027 15.712 13.4536 15.3305 13.7446C15.1658 13.8573 15.0311 14.0089 14.9384 14.186C14.8457 14.3632 14.7976 14.5606 14.7986 14.7608H12.3968C12.4132 14.16 12.6182 13.5799 12.9825 13.1033C13.3827 12.5567 13.9398 12.1462 14.5788 11.9269C15.2883 11.6367 16.0482 11.4913 16.8141 11.4993C17.8908 11.4473 18.9498 11.7893 19.7947 12.462C20.1724 12.7916 20.4697 13.2039 20.6639 13.6672C20.858 14.1305 20.9437 14.6324 20.9144 15.1342V19.9469C20.8908 20.7351 21.0359 21.5193 21.3399 22.2463V22.4067H18.8394V22.3532ZM16.1759 20.6395C16.6383 20.6412 17.0943 20.5313 17.5055 20.3189C17.9079 20.1184 18.2415 19.8018 18.4636 19.4096V17.3774H17.1892C16.4985 17.3225 15.8085 17.4911 15.2199 17.8584C15.0041 18.0068 14.8281 18.2063 14.7074 18.4394C14.5867 18.6724 14.525 18.9317 14.5278 19.1945C14.5215 19.4057 14.5611 19.6157 14.6438 19.81C14.7265 20.0043 14.8502 20.1782 15.0064 20.3196C15.3618 20.527 15.7649 20.6373 16.1759 20.6395V20.6395Z" fill="#000100"></path> <path d="M25.8646 22.3524H23.4697V7.21875H25.8646V22.3524Z" fill="#000100"></path> <path d="M34.8055 22.3532C34.6581 22.0329 34.5681 21.6889 34.5396 21.3371C34.1874 21.7187 33.7586 22.0208 33.2816 22.2236C32.8046 22.4264 32.2902 22.5252 31.7724 22.5136C30.8217 22.5418 29.8938 22.2182 29.1648 21.6043C28.8404 21.3294 28.5811 20.9852 28.4061 20.5967C28.231 20.2082 28.1445 19.7854 28.1529 19.359C28.1276 18.8493 28.2315 18.3416 28.4549 17.8833C28.6783 17.425 29.0139 17.0313 29.4301 16.7389C30.5171 16.0725 31.7805 15.7553 33.0517 15.8296H34.4885V15.1342C34.5106 14.6428 34.3385 14.1625 34.0098 13.7981C33.8223 13.63 33.6034 13.501 33.3659 13.4184C33.1285 13.3359 32.877 13.3014 32.6262 13.3171C32.1474 13.3027 31.6781 13.4536 31.2965 13.7446C31.1318 13.8573 30.9972 14.0089 30.9045 14.186C30.8117 14.3632 30.7637 14.5606 30.7647 14.7608H28.3628C28.3793 14.16 28.5843 13.5799 28.9486 13.1033C29.3488 12.5567 29.9058 12.1462 30.5449 11.9269C31.2544 11.6367 32.0142 11.4913 32.7802 11.4993C33.8569 11.4473 34.9159 11.7893 35.7608 12.462C36.1385 12.7916 36.4358 13.2039 36.63 13.6672C36.8241 14.1305 36.9098 14.6324 36.8805 15.1342V19.9469C36.8569 20.7351 37.002 21.5193 37.306 22.2463V22.4067H34.8055V22.3532ZM32.1972 20.6395C32.6596 20.6412 33.1157 20.5313 33.5269 20.3189C33.9293 20.1184 34.2629 19.8018 34.485 19.4096V17.3774H33.2085C32.5178 17.3225 31.8277 17.4911 31.2392 17.8584C31.0234 18.0068 30.8474 18.2063 30.7266 18.4394C30.6059 18.6724 30.5442 18.9317 30.547 19.1945C30.5408 19.4057 30.5804 19.6157 30.6631 19.81C30.7457 20.0043 30.8695 20.1782 31.0257 20.3196C31.3785 20.5347 31.7846 20.6456 32.1972 20.6395Z" fill="#000100"></path> <path d="M41.5646 11.7086L41.6178 12.9385C41.9859 12.4743 42.4564 12.1025 42.9922 11.8524C43.5279 11.6023 44.1142 11.4809 44.7047 11.4976C46.94 11.4976 48.0576 12.781 48.0576 15.2949V22.3529H45.6621V15.4545C45.6998 14.9212 45.5491 14.3916 45.2366 13.9588C45.0465 13.7782 44.8194 13.6416 44.5712 13.5585C44.323 13.4754 44.0597 13.4479 43.7998 13.4778C43.3517 13.4557 42.9076 13.5718 42.527 13.8107C42.1465 14.0495 41.8478 14.3996 41.6709 14.8139V22.4085H39.2761V11.7086H41.5646Z" fill="#000100"></path> <path d="M54.8691 20.6386C55.4155 20.6584 55.9486 20.4672 56.359 20.1042C56.5447 19.9434 56.6968 19.7471 56.8064 19.5268C56.9161 19.3065 56.9812 19.0666 56.998 18.8209H59.2333C59.2247 19.4974 59.0008 20.1534 58.5943 20.6928C58.1927 21.2888 57.6422 21.7682 56.998 22.083C56.3345 22.4054 55.6061 22.57 54.8691 22.564C54.214 22.5982 53.5595 22.4868 52.9522 22.2376C52.345 21.9884 51.7999 21.6076 51.3559 21.1224C50.4309 19.9996 49.9567 18.5701 50.0263 17.1142V16.8413C49.9566 15.4262 50.4116 14.0354 51.3034 12.9379C51.7471 12.4524 52.292 12.0713 52.8992 11.8217C53.5063 11.5722 54.1608 11.4603 54.8159 11.4942C55.9523 11.4456 57.0617 11.85 57.9029 12.6193C58.2978 12.9895 58.6144 13.4358 58.8338 13.9316C59.0533 14.4275 59.171 14.9627 59.1801 15.5053H56.9448C56.9526 15.2241 56.8995 14.9446 56.7891 14.6861C56.6788 14.4276 56.5139 14.1963 56.3059 14.0081C56.1082 13.8165 55.8748 13.6658 55.6192 13.5648C55.3635 13.4639 55.0906 13.4145 54.8159 13.4196C54.4668 13.3964 54.1175 13.4627 53.801 13.6124C53.4844 13.7621 53.2109 13.9903 53.0061 14.2754C52.5248 15.04 52.3008 15.9398 52.3672 16.842V17.2161C52.293 18.1191 52.5176 19.0214 53.0061 19.7828C53.2295 20.0607 53.514 20.2827 53.8373 20.4312C54.1606 20.5797 54.5138 20.6507 54.8691 20.6386V20.6386Z" fill="white"></path> <path d="M65.7253 22.5652C65.0476 22.5888 64.3722 22.4729 63.7408 22.2247C63.1093 21.9764 62.535 21.601 62.0532 21.1215C61.5784 20.6159 61.2109 20.0185 60.9731 19.3657C60.7352 18.7129 60.632 18.0184 60.6697 17.3242V17.0036C60.6479 16.0206 60.8673 15.0473 61.3086 14.1697C61.6815 13.3635 62.2713 12.6781 63.0113 12.1909C63.7411 11.7201 64.5937 11.478 65.4607 11.4954C66.087 11.4645 66.7124 11.5731 67.292 11.8134C67.8717 12.0537 68.3913 12.4199 68.8136 12.8856C69.671 14.017 70.0874 15.4242 69.9844 16.8425V17.8052H63.0659C63.0858 18.5923 63.4104 19.3406 63.9708 19.8909C64.2215 20.1418 64.5211 20.3378 64.8509 20.4667C65.1807 20.5956 65.5334 20.6545 65.8869 20.6398C66.4056 20.6553 66.9199 20.5414 67.384 20.3083C67.8481 20.0751 68.2474 19.73 68.5463 19.3037L69.8235 20.5336C69.3882 21.1668 68.8031 21.6813 68.1208 22.0308C67.3794 22.4075 66.5557 22.5913 65.7253 22.5652V22.5652ZM65.4593 13.4236C65.1585 13.4129 64.8591 13.4698 64.583 13.5901C64.3068 13.7104 64.0609 13.8911 63.863 14.119C63.4268 14.6705 63.1669 15.3417 63.1177 16.0444H67.6414V15.8841C67.6369 15.2231 67.4119 14.5828 67.0025 14.0656C66.808 13.8511 66.569 13.6822 66.3023 13.5708C66.0356 13.4595 65.7478 13.4085 65.4593 13.4215L65.4593 13.4236Z" fill="#000100"></path> <path d="M59.1259 24.4922H50.6111V26.2031H59.1259V24.4922Z" fill="white"></path> </svg> 