<?xml version="1.0" encoding="UTF-8"?> <svg xmlns="http://www.w3.org/2000/svg" width="40" height="24" viewBox="0 0 40 24" fill="none"> <path d="M24.9502 2.56836H14.3163V21.4263H24.9502V2.56836Z" fill="#7673C0"></path> <path d="M14.9915 11.9972C14.9915 8.33225 16.7131 4.83387 19.6501 2.56825C14.3838 -1.52985 6.7207 -0.630267 2.60219 4.60065C-1.55007 9.79824 -0.638596 17.3614 4.66144 21.4262C9.08377 24.8579 15.2615 24.8579 19.6839 21.4262C16.7131 19.1606 14.9915 15.6955 14.9915 11.9972Z" fill="#EB001B"></path> <path d="M39.2972 11.9972C39.2972 18.6275 33.8621 23.9917 27.1442 23.9917C24.4098 23.9917 21.7767 23.0921 19.6499 21.4262C24.9162 17.3614 25.8277 9.79824 21.7092 4.60065C21.1015 3.83433 20.4263 3.16797 19.6499 2.56825C24.9162 -1.52985 32.5793 -0.630267 36.7315 4.60065C38.3857 6.69967 39.2972 9.33179 39.2972 11.9972Z" fill="#00A1DF"></path> </svg> 