<?xml version="1.0" encoding="UTF-8"?> <svg xmlns="http://www.w3.org/2000/svg" width="90" height="44" viewBox="0 0 90 44" fill="none"> <mask id="mask0_4_96" style="mask-type:luminance" maskUnits="userSpaceOnUse" x="24" y="12" width="17" height="20"> <path d="M32.4931 28.0276C30.3088 28.0276 28.8523 26.426 28.8523 24.0667C28.8523 21.7073 30.338 20.0761 32.4931 20.0761C34.6482 20.0761 36.2196 21.7656 36.2196 24.0375C36.2196 26.3677 34.676 28.0276 32.4931 28.0276ZM33.2213 16.5224C31.4155 16.5224 29.9011 17.1631 28.9111 18.2411V14.3736C28.9111 13.2085 28.0666 12.3636 26.9594 12.3636C25.8235 12.3636 24.979 13.2377 24.979 14.3736V29.6008C24.979 30.7367 25.8235 31.6104 26.9302 31.6104C27.9499 31.6104 28.7365 30.853 28.8236 29.7754C29.814 30.9428 31.3576 31.6104 33.2236 31.6104C37.2725 31.6104 40.2142 28.4357 40.2142 24.0675C40.2142 19.6994 37.2702 16.5224 33.2213 16.5224Z" fill="white"></path> </mask> <g mask="url(#mask0_4_96)"> <path d="M40.2117 12.3636H24.9783V31.61H40.2117V12.3636Z" fill="url(#paint0_linear_4_96)"></path> </g> <mask id="mask1_4_96" style="mask-type:luminance" maskUnits="userSpaceOnUse" x="76" y="16" width="10" height="16"> <path d="M84.5707 28.5811L80.4347 23.3968L84.1046 19.6702C84.5415 19.2334 84.7453 18.7673 84.7453 18.2721C84.7453 17.2817 83.9592 16.5242 82.9395 16.5242C82.6814 16.5257 82.4264 16.5809 82.1907 16.6862C81.955 16.7916 81.7439 16.9448 81.5706 17.1362L76.9686 21.9403C76.4747 22.4939 76.2695 22.9016 76.2695 23.3968C76.2695 23.8336 76.4442 24.2413 76.881 24.8236L81.8041 30.8822C82.1826 31.376 82.6486 31.6104 83.2606 31.6104C84.2483 31.6104 85.0372 30.8238 85.0372 29.8046C85.0372 29.3673 84.8917 28.9893 84.5711 28.5811" fill="white"></path> </mask> <g mask="url(#mask1_4_96)"> <path d="M85.0367 16.5226H76.2695V31.6101H85.0367V16.5226Z" fill="url(#paint1_linear_4_96)"></path> </g> <mask id="mask2_4_96" style="mask-type:luminance" maskUnits="userSpaceOnUse" x="71" y="12" width="5" height="20"> <path d="M73.6775 12.3766C72.5416 12.3766 71.6971 13.2507 71.6971 14.3867V29.6008C71.6971 30.7367 72.5416 31.6104 73.6775 31.6104C74.7843 31.6104 75.6293 30.7659 75.6293 29.6008V14.3867C75.6293 13.2216 74.8135 12.3766 73.6775 12.3766Z" fill="white"></path> </mask> <g mask="url(#mask2_4_96)"> <path d="M75.6286 12.3766H71.6964V31.6104H75.6286V12.3766Z" fill="url(#paint2_linear_4_96)"></path> </g> <mask id="mask3_4_96" style="mask-type:luminance" maskUnits="userSpaceOnUse" x="56" y="16" width="14" height="16"> <path d="M64.2598 16.5224C62.6578 16.5224 61.2305 17.076 60.2109 18.0081C60.007 17.1344 59.2788 16.5224 58.3759 16.5224C57.2692 16.5224 56.4246 17.3674 56.4246 18.5033V29.6008C56.4246 30.7367 57.2692 31.6104 58.4051 31.6104C59.5118 31.6104 60.3568 30.7659 60.3568 29.6008V22.8432C60.3568 21.212 61.4927 20.0469 63.0956 20.0469C64.6984 20.0469 65.7755 21.1829 65.7755 22.8432V29.6008C65.7755 30.7367 66.6205 31.6104 67.7272 31.6104C68.8632 31.6104 69.6785 30.7659 69.6785 29.6008V22.3188C69.6785 18.7947 67.5526 16.5224 64.2611 16.5224" fill="white"></path> </mask> <g mask="url(#mask3_4_96)"> <path d="M69.6772 16.5224H56.4246V31.61H69.6772V16.5224Z" fill="url(#paint3_linear_4_96)"></path> </g> <mask id="mask4_4_96" style="mask-type:luminance" maskUnits="userSpaceOnUse" x="41" y="16" width="14" height="16"> <path d="M47.4437 28.7266C46.1623 28.7266 45.3757 28.1151 45.3757 27.1552C45.3757 26.1953 46.0747 25.6987 47.3853 25.6987H50.4729V25.8738C50.4729 27.5049 49.1624 28.728 47.4437 28.728M48.1719 16.5224C46.0747 16.5224 44.1818 17.1631 42.9584 18.2995C42.434 18.7934 42.1426 19.3187 42.1426 19.8709C42.1426 20.7447 42.8708 21.4729 43.8321 21.4729C44.2106 21.4729 44.5311 21.3562 44.9994 21.0069C45.844 20.2786 46.7469 19.9293 47.7665 19.9293C49.5139 19.9293 50.4752 20.8614 50.4752 22.4633V23.104H46.8636C43.485 23.104 41.417 24.706 41.417 27.2984C41.417 29.8612 43.4267 31.6086 46.3976 31.6086C48.1158 31.6086 49.5723 31.0555 50.6211 30.065C50.7958 30.9387 51.5527 31.5794 52.514 31.5794C53.5916 31.5794 54.4074 30.7641 54.4074 29.6282V22.6973C54.4051 18.7673 52.1333 16.5224 48.1719 16.5224Z" fill="white"></path> </mask> <g mask="url(#mask4_4_96)"> <path d="M54.4053 16.5224H41.415V31.61H54.4053V16.5224Z" fill="url(#paint4_linear_4_96)"></path> </g> <mask id="mask5_4_96" style="mask-type:luminance" maskUnits="userSpaceOnUse" x="13" y="16" width="9" height="16"> <path d="M21.705 18.432C21.7056 18.055 21.5943 17.6863 21.3852 17.3726C21.1761 17.0589 20.8787 16.8142 20.5306 16.6696C20.1824 16.5249 19.7992 16.4868 19.4294 16.5601C19.0596 16.6333 18.7198 16.8146 18.4531 17.081L14.4122 21.1218C14.0559 21.4803 13.8559 21.9653 13.8559 22.4708C13.8559 22.9762 14.0559 23.4612 14.4122 23.8197C14.7707 24.176 15.2556 24.376 15.761 24.376C16.2664 24.376 16.7513 24.176 17.1097 23.8197L17.8927 23.0367V29.7036C17.8943 30.2089 18.0957 30.6931 18.4531 31.0504C18.8105 31.4076 19.2947 31.609 19.8 31.6104C20.3053 31.609 20.7896 31.4076 21.1469 31.0504C21.5043 30.6931 21.7057 30.2089 21.7073 29.7036L21.705 18.432Z" fill="white"></path> </mask> <g mask="url(#mask5_4_96)"> <path d="M21.7055 16.3388H13.6674V31.6104H21.7055V16.3388Z" fill="url(#paint5_linear_4_96)"></path> </g> <path fill-rule="evenodd" clip-rule="evenodd" d="M4.79735 18.432C4.79649 18.0545 4.90773 17.6853 5.11695 17.3711C5.32618 17.057 5.62397 16.812 5.97258 16.6673C6.3212 16.5226 6.70492 16.4847 7.07512 16.5583C7.44532 16.632 7.78532 16.8139 8.05201 17.081L12.0928 21.1218C12.4493 21.4803 12.6494 21.9652 12.6494 22.4708C12.6494 22.9763 12.4493 23.4613 12.0928 23.8197C11.7343 24.1761 11.2494 24.3761 10.7439 24.3761C10.2384 24.3761 9.75342 24.1761 9.3949 23.8197L8.61233 23.0371V29.7036C8.61079 30.2089 8.40934 30.6931 8.05198 31.0504C7.69462 31.4076 7.21039 31.609 6.70507 31.6104C6.19967 31.6091 5.71532 31.4078 5.35787 31.0505C5.00041 30.6932 4.79889 30.209 4.79735 29.7036V18.432Z" fill="#FABF00"></path> <defs> <linearGradient id="paint0_linear_4_96" x1="33.0438" y1="27.3411" x2="31.612" y2="10.256" gradientUnits="userSpaceOnUse"> <stop stop-color="#007B82"></stop> <stop offset="1" stop-color="#009C4D"></stop> </linearGradient> <linearGradient id="paint1_linear_4_96" x1="80.5936" y1="23.357" x2="79.1623" y2="6.27196" gradientUnits="userSpaceOnUse"> <stop stop-color="#007B82"></stop> <stop offset="1" stop-color="#009C4D"></stop> </linearGradient> <linearGradient id="paint2_linear_4_96" x1="73.8241" y1="23.9243" x2="72.3928" y2="6.83931" gradientUnits="userSpaceOnUse"> <stop stop-color="#007B82"></stop> <stop offset="1" stop-color="#009C4D"></stop> </linearGradient> <linearGradient id="paint3_linear_4_96" x1="63.114" y1="24.8214" x2="61.6826" y2="7.73637" gradientUnits="userSpaceOnUse"> <stop stop-color="#007B82"></stop> <stop offset="1" stop-color="#009C4D"></stop> </linearGradient> <linearGradient id="paint4_linear_4_96" x1="48.0787" y1="26.0812" x2="46.6474" y2="8.99621" gradientUnits="userSpaceOnUse"> <stop stop-color="#007B82"></stop> <stop offset="1" stop-color="#009C4D"></stop> </linearGradient> <linearGradient id="paint5_linear_4_96" x1="17.2359" y1="29.3399" x2="18.6713" y2="12.2549" gradientUnits="userSpaceOnUse"> <stop stop-color="#007B82"></stop> <stop offset="1" stop-color="#009C4D"></stop> </linearGradient> </defs> </svg> 