<?xml version="1.0" encoding="UTF-8"?> <svg xmlns="http://www.w3.org/2000/svg" width="243" height="46" viewBox="0 0 243 46" fill="none"> <g clip-path="url(#clip0_1728_68)"> <path fill-rule="evenodd" clip-rule="evenodd" d="M86.1069 11.7895C86.1069 10.7672 85.2827 9.93848 84.2662 9.93848H79.548C78.8329 9.93848 78.1824 10.355 77.88 11.0066L69.4665 29.1333L61.0531 11.0066C60.7506 10.355 60.1003 9.93848 59.3851 9.93848H54.667C53.6503 9.93848 52.8262 10.7672 52.8262 11.7895V35.8524H58.5325V17.8237L66.3939 34.7836C66.6962 35.4356 67.3468 35.8524 68.0622 35.8524H70.8709C71.5863 35.8524 72.2368 35.4356 72.5391 34.7836L80.3975 17.8237V35.8524H86.1069V11.7895ZM97.2117 15.1213V20.304H112.205V25.4868H97.2117V30.6696H116.092V35.8524H93.3248C92.3025 35.8524 91.4735 35.0236 91.4735 34.0014V11.7895C91.4735 10.7672 92.3025 9.93848 93.3248 9.93848H116.092L113.685 15.1213H97.2117ZM125.903 30.6696V15.1213H143.672L146.078 9.93848H122.016C120.994 9.93848 120.165 10.7672 120.165 11.7895V34.0014C120.165 35.0236 120.994 35.8524 122.016 35.8524H144.228C145.25 35.8524 146.078 35.0236 146.078 34.0014V20.304H132.936L130.531 25.4868H140.341V30.6696H125.903ZM167.819 9.93848C168.898 9.93848 169.879 10.5635 170.335 11.5413L181.675 35.8524H177.133C176.414 35.8524 175.761 35.4366 175.456 34.7858L173.531 30.6696H157.186L155.261 34.7858C154.957 35.4366 154.303 35.8524 153.584 35.8524H149.042L160.382 11.5413C160.837 10.5635 161.819 9.93848 162.898 9.93848H167.819ZM166.294 15.1213H164.442L159.611 25.4868H171.124L166.294 15.1213Z" fill="#2C2C2C"></path> <path d="M199.27 9.93848C201.95 9.93848 204.053 10.7253 205.578 12.2992C207.127 13.8729 207.901 15.8401 207.901 18.2009C207.901 20.5124 207.114 22.4797 205.541 24.1026C203.991 25.701 201.926 26.5002 199.344 26.5002H193.516V35.9061H190.233V9.93848H199.27ZM198.901 12.9262H193.516V23.5125H198.901C200.672 23.5125 202.048 23.0329 203.032 22.0739C204.04 21.0903 204.545 19.7992 204.545 18.2009C204.545 16.6025 204.053 15.3237 203.069 14.3647C202.086 13.4057 200.696 12.9262 198.901 12.9262Z" fill="#2C2C2C"></path> <path d="M220.841 23.5862C220.841 22.3321 220.448 21.3731 219.661 20.7091C218.899 20.0452 217.89 19.7132 216.636 19.7132C214.398 19.7132 212.972 20.537 212.357 22.1845H209.296C209.615 20.6599 210.415 19.4058 211.694 18.4222C212.997 17.414 214.669 16.9099 216.71 16.9099C218.899 16.9099 220.657 17.5124 221.984 18.7173C223.312 19.8976 223.976 21.5207 223.976 23.5862V35.9061H220.989V33.693C219.587 35.4389 217.595 36.3119 215.013 36.3119C213.169 36.3119 211.632 35.7955 210.402 34.7627C209.198 33.7053 208.595 32.3159 208.595 30.5946C208.595 28.7995 209.247 27.3978 210.55 26.3896C211.853 25.3568 213.636 24.8404 215.898 24.8404H220.841V23.5862ZM215.419 33.5454C216.944 33.5454 218.223 33.1151 219.255 32.2544C220.313 31.3938 220.841 30.2749 220.841 28.8978V27.533H216.082C214.779 27.533 213.735 27.7913 212.948 28.3077C212.186 28.8241 211.804 29.5741 211.804 30.5576C211.804 31.5167 212.136 32.2544 212.8 32.7708C213.464 33.2872 214.337 33.5454 215.419 33.5454Z" fill="#2C2C2C"></path> <path d="M239.523 17.3156H242.954L232.773 42.9513H229.342L232.219 35.6847L224.916 17.3156H228.347L233.954 31.8118L239.523 17.3156Z" fill="#2C2C2C"></path> <path d="M17.4488 0.873432C19.466 -0.291144 21.951 -0.291144 23.9682 0.873431L38.1505 9.06166C40.1676 10.2262 41.4102 12.3784 41.4102 14.7076V31.0841C41.4102 33.4133 40.1676 35.5655 38.1505 36.73L23.9682 44.9182C21.951 46.0828 19.466 46.0828 17.4488 44.9182L3.2665 36.73C1.24942 35.5655 0.00683594 33.4133 0.00683594 31.0841V14.7076C0.00683594 12.3784 1.24942 10.2262 3.2665 9.06166L17.4488 0.873432Z" fill="#32D681"></path> <path fill-rule="evenodd" clip-rule="evenodd" d="M12.8274 12.3723H13.4364C13.9564 12.3723 14.4331 12.7066 14.6497 13.2319L19.373 24.4065L20.7799 27.6955L22.707 23.1649L26.8669 13.232C27.0836 12.7066 27.5602 12.3723 28.0802 12.3723H28.6873H31.3302H31.5038C32.2405 12.3723 32.8472 13.0409 32.8472 13.8528V33.0979H28.6873V18.6751L28.6868 18.676L22.967 32.2383C22.9194 32.3536 22.8593 32.4597 22.789 32.5551L22.7963 32.5725C22.5363 32.9068 22.1896 33.0979 21.7563 33.0979H21.7555C21.7549 33.0979 21.7543 33.0979 21.7537 33.0979H19.7196H19.717C19.4578 33.0979 19.1984 33.0134 18.99 32.8585C18.783 32.7095 18.6131 32.4971 18.5063 32.2383L14.2598 22.1143L12.8274 18.725V33.0979H8.66748V13.8528C8.66748 13.0409 9.27412 12.3723 10.0108 12.3723H12.8274Z" fill="white"></path> </g> <defs> <clipPath id="clip0_1728_68"> <rect width="243" height="45.7917" fill="white"></rect> </clipPath> </defs> </svg> 